<svg width="286" height="62" viewBox="0 0 286 62" fill="none" xmlns="http://www.w3.org/2000/svg">
<g filter="url(#filter0_d_2935_28250)">
<ellipse cx="29" cy="27" rx="15" ry="15" fill="#003580"/>
<path d="M28.8559 30.771L26.6493 30.7688V28.1303C26.6493 27.5665 26.868 27.2731 27.3504 27.2061H28.856C29.9296 27.2061 30.6242 27.883 30.6242 28.9787C30.6242 30.104 29.9472 30.77 28.856 30.771H28.8559ZM26.6493 23.6543V22.9597C26.6493 22.352 26.9064 22.063 27.4702 22.0256H28.5999C29.5681 22.0256 30.1483 22.6048 30.1483 23.5752C30.1483 24.3136 29.7505 25.1763 28.6351 25.1763H26.6493V23.6543ZM31.6736 26.2874L31.2747 26.0632L31.6231 25.7654C32.0286 25.417 32.7078 24.6334 32.7078 23.2817C32.7078 21.2113 31.1022 19.8761 28.6175 19.8761H25.7822V19.875H25.4591C24.7228 19.9025 24.1327 20.5014 24.125 21.2421V32.9898H28.6735C31.4352 32.9898 33.2177 31.4865 33.2177 29.1578C33.2177 27.9039 32.6418 26.8324 31.6736 26.2874Z" fill="white"/>
<path d="M34.4023 31.367C34.4023 30.4696 35.1261 29.7435 36.0179 29.7435C36.9119 29.7435 37.6391 30.4696 37.6391 31.367C37.6391 32.2633 36.9119 32.9905 36.0179 32.9905C35.1261 32.9905 34.4023 32.2633 34.4023 31.367Z" fill="#00BAFC"/>
</g>
<g filter="url(#filter1_d_2935_28250)">
<ellipse cx="67" cy="27" rx="15" ry="15" fill="#297FFF"/>
<path d="M71.3743 25.2314C71.1304 25.2321 70.8896 25.286 70.6686 25.3893C70.4477 25.4926 70.2519 25.6428 70.095 25.8295V25.4447H68.813V31.7038H70.238V29.5116C70.5564 29.7787 70.9587 29.9251 71.3743 29.9251C71.9866 29.9162 72.5702 29.6648 72.9973 29.226C73.4244 28.7873 73.6599 28.197 73.6523 27.5848C73.6599 26.9725 73.4244 26.3823 72.9973 25.9435C72.5702 25.5048 71.9866 25.2534 71.3743 25.2444V25.2314ZM73.6523 27.5848C73.6599 26.9725 73.4244 26.3823 72.9973 25.9435C72.5702 25.5048 71.9866 25.2534 71.3743 25.2444L73.6523 27.5848ZM71.2339 28.6249C71.0266 28.6337 70.8213 28.5803 70.6445 28.4715C70.4677 28.3627 70.3276 28.2035 70.242 28.0144C70.1565 27.8253 70.1295 27.6149 70.1645 27.4103C70.1995 27.2057 70.2949 27.0163 70.4384 26.8664C70.582 26.7164 70.7671 26.6129 70.97 26.569C71.1729 26.5252 71.3842 26.543 71.5769 26.6203C71.7695 26.6976 71.9347 26.8307 72.051 27.0026C72.1674 27.1745 72.2297 27.3772 72.2299 27.5848C72.233 27.7185 72.2097 27.8516 72.1612 27.9763C72.1128 28.101 72.0403 28.2149 71.9478 28.3116C71.8553 28.4082 71.7446 28.4856 71.6221 28.5394C71.4996 28.5932 71.3677 28.6222 71.2339 28.6249Z" fill="white"/>
<path d="M76.0001 29.0722C76.0006 29.2415 75.9509 29.4071 75.8572 29.5482C75.7635 29.6892 75.6301 29.7993 75.4738 29.8644C75.3175 29.9296 75.1454 29.9469 74.9793 29.9142C74.8131 29.8814 74.6605 29.8002 74.5406 29.6806C74.4207 29.5611 74.3389 29.4086 74.3057 29.2426C74.2725 29.0766 74.2893 28.9044 74.3539 28.748C74.4186 28.5915 74.5283 28.4577 74.669 28.3636C74.8098 28.2695 74.9753 28.2192 75.1446 28.2192C75.2568 28.2189 75.368 28.2407 75.4718 28.2834C75.5756 28.3261 75.6699 28.3889 75.7494 28.4681C75.8288 28.5474 75.8919 28.6415 75.9349 28.7452C75.978 28.8488 76.0001 28.9599 76.0001 29.0722Z" fill="#FCAF17"/>
<path fill-rule="evenodd" clip-rule="evenodd" d="M67.1017 24.8466C66.9437 24.8471 66.7891 24.8008 66.6575 24.7133C66.5258 24.6259 66.4231 24.5014 66.3623 24.3556C66.3015 24.2098 66.2853 24.0492 66.3158 23.8942C66.3463 23.7391 66.4221 23.5966 66.5337 23.4847C66.6452 23.3728 66.7875 23.2965 66.9424 23.2655C67.0973 23.2345 67.258 23.2502 67.404 23.3105C67.55 23.3709 67.6748 23.4732 67.7627 23.6045C67.8505 23.7359 67.8974 23.8903 67.8974 24.0483C67.8977 24.153 67.8774 24.2568 67.8376 24.3536C67.7977 24.4505 67.7392 24.5385 67.6653 24.6126C67.5913 24.6868 67.5035 24.7457 67.4068 24.7858C67.3101 24.826 67.2064 24.8466 67.1017 24.8466Z" fill="white"/>
<path d="M67.8169 25.4447H66.3945V29.7145H67.8169V25.4447Z" fill="white"/>
<path fill-rule="evenodd" clip-rule="evenodd" d="M58 23.4528V24.6463H59.8489V29.7118H61.2739V24.6463H63.1227V23.4528H58Z" fill="white"/>
<path d="M65.3978 25.4213C65.1438 25.4208 64.8937 25.4838 64.6702 25.6046C64.4468 25.7254 64.2571 25.9002 64.1184 26.113V25.4447H62.8364V29.7119H64.2666V27.9332C64.26 27.7747 64.2864 27.6166 64.344 27.4688C64.4016 27.321 64.4893 27.1867 64.6015 27.0745C64.7137 26.9624 64.8479 26.8747 64.9957 26.817C65.1435 26.7594 65.3017 26.733 65.4602 26.7397C65.5353 26.7409 65.6101 26.7487 65.6838 26.7631V25.4629C65.5891 25.4484 65.4936 25.4406 65.3978 25.4395" fill="white"/>
</g>
<g filter="url(#filter2_d_2935_28250)">
<ellipse cx="105" cy="27" rx="15" ry="15" fill="#717376"/>
<path d="M102.305 33.3103C101.771 33.3103 101.335 33.7454 101.335 34.2801C101.335 34.8149 101.771 35.25 102.305 35.25C102.84 35.25 103.275 34.8149 103.275 34.2801C103.275 33.7454 102.84 33.3103 102.305 33.3103Z" fill="#FCB615"/>
<path d="M99.5948 33.3103C99.0601 33.3103 98.625 33.7454 98.625 34.2801C98.625 34.8149 99.0601 35.25 99.5948 35.25C100.13 35.25 100.565 34.8149 100.565 34.2801C100.565 33.7454 100.13 33.3103 99.5948 33.3103Z" fill="#ED353F"/>
<path d="M105.015 33.3103C104.48 33.3103 104.045 33.7454 104.045 34.2801C104.045 34.8149 104.48 35.25 105.015 35.25C105.55 35.25 105.985 34.8149 105.985 34.2801C105.985 33.7454 105.55 33.3103 105.015 33.3103Z" fill="#02AF56"/>
<path d="M110.436 33.3103C109.901 33.3103 109.466 33.7454 109.466 34.2801C109.466 34.8149 109.901 35.25 110.436 35.25C110.971 35.25 111.406 34.8149 111.406 34.2801C111.406 33.7454 110.971 33.3103 110.436 33.3103Z" fill="#00A8DF"/>
<path d="M107.726 33.3103C107.192 33.3103 106.756 33.7454 106.756 34.2801C106.756 34.8149 107.191 35.25 107.726 35.25C108.261 35.25 108.696 34.8149 108.696 34.2801C108.696 33.7454 108.261 33.3103 107.726 33.3103Z" fill="#A14699"/>
<path d="M109.518 24.9959C109.518 22.429 107.582 20.4928 105.016 20.4928C102.449 20.4928 100.513 22.429 100.513 24.9959C100.513 27.5615 102.449 29.4989 105.016 29.4989C107.581 29.4989 109.518 27.5615 109.518 24.9959ZM98.625 24.9959C98.625 21.4375 101.481 18.75 105.016 18.75C108.574 18.75 111.406 21.4129 111.406 24.9713V30.4424C111.406 30.9991 111.018 31.3859 110.438 31.3859C109.833 31.3859 109.47 30.9991 109.47 30.4424V28.8449H109.373C108.623 30.1283 107.122 31.2418 104.895 31.2418C101.458 31.2418 98.625 28.5789 98.625 24.9959Z" fill="white"/>
</g>
<g filter="url(#filter3_d_2935_28250)">
<g clip-path="url(#clip0_2935_28250)">
<path d="M142.994 41.9879C151.275 41.9879 157.988 35.2749 157.988 26.994C157.988 18.713 151.275 12 142.994 12C134.713 12 128 18.713 128 26.994C128 35.2749 134.713 41.9879 142.994 41.9879Z" fill="#FDDB32"/>
<path d="M137.658 35.3964V32.7284C137.658 32.5111 137.489 32.342 137.271 32.342H134.591C134.374 32.342 134.205 32.5111 134.205 32.7284V35.3964C134.205 35.6137 134.374 35.7827 134.591 35.7827H137.259C137.477 35.7948 137.658 35.6137 137.658 35.3964Z" fill="#191E3B"/>
<path d="M151.795 33.1147V19.9678C151.795 18.9899 151.01 18.2052 150.032 18.2052H136.885C136.62 18.2052 136.463 18.3018 136.294 18.4708L133.662 21.1026C133.469 21.2957 133.602 21.5855 133.892 21.5855H145.783L138.407 28.9617C138.274 29.0945 138.213 29.2273 138.213 29.4446V31.3883C138.213 31.6177 138.37 31.7746 138.6 31.7746H140.543C140.773 31.7746 140.906 31.7143 141.026 31.5815L148.403 24.2052V36.0965C148.403 36.3863 148.692 36.5191 148.885 36.3259L151.529 33.6941C151.698 33.5372 151.795 33.3682 151.795 33.1147Z" fill="#191E3B"/>
</g>
</g>
<g filter="url(#filter4_d_2935_28250)">
<g clip-path="url(#clip1_2935_28250)">
<path d="M181.021 42.041C189.316 42.041 196.041 35.3161 196.041 27.0205C196.041 18.7249 189.316 12 181.021 12C172.725 12 166 18.7249 166 27.0205C166 35.3161 172.725 42.041 181.021 42.041Z" fill="#EF3346"/>
<path d="M177.061 25.4314C177.061 25.2021 176.904 25.0453 176.675 25.0453H173.996C173.767 25.0453 173.61 25.2021 173.61 25.4314V28.0979C173.61 28.3271 173.767 28.484 173.996 28.484H176.662C176.892 28.484 177.049 28.3271 177.049 28.0979V25.4314H177.061Z" fill="#191E3B"/>
<path d="M182.961 31.3436C182.961 31.1144 182.792 30.9575 182.575 30.9575H179.908C179.679 30.9575 179.522 31.1144 179.522 31.3436V34.0101C179.522 34.2394 179.679 34.3962 179.908 34.3962H182.575C182.804 34.3962 182.961 34.2394 182.961 34.0101V31.3436Z" fill="#191E3B"/>
<path d="M182.961 25.4314C182.961 25.2021 182.804 25.0453 182.575 25.0453H179.908C179.679 25.0453 179.522 25.2021 179.522 25.4314V28.0979C179.522 28.3271 179.679 28.484 179.908 28.484H182.575C182.804 28.484 182.961 28.3271 182.961 28.0979V25.4314Z" fill="#FDDB32"/>
<path d="M189.802 19.9657C189.802 18.9884 189.017 18.2041 188.04 18.2041H174.901C174.635 18.2041 174.478 18.3006 174.322 18.4695L171.679 21.0999C171.486 21.2929 171.619 21.5945 171.908 21.5945H186.411V36.0974C186.411 36.387 186.701 36.5197 186.906 36.3267L189.548 33.6964C189.717 33.5275 189.802 33.3706 189.802 33.1052V19.9657Z" fill="#191E3B"/>
</g>
</g>
<ellipse cx="219" cy="27" rx="15" ry="15" fill="#CC0D21"/>
<path d="M226.755 26.4338C227.258 26.9341 227.633 27.6195 227.504 28.38C227.376 28.9397 227.088 29.45 226.675 29.8481C226.261 30.2462 225.74 30.5147 225.176 30.6207C224.823 30.6892 224.465 30.7277 224.105 30.7357H220.934L222.442 24.7232L224.99 23.8449L223.73 28.8822C224.678 28.8692 225.315 28.1501 225.264 27.4919C225.211 26.8309 224.893 26.4896 224.474 26.301C224.573 26.2646 225.97 25.3735 225.678 24.4518C225.372 23.5286 223.971 23.6523 223.158 23.8646C222.391 24.0423 221.638 24.2726 220.904 24.5538L219.353 30.7357H216.932L218.223 25.5807C218.193 25.5792 216.297 26.4425 216.297 26.4425L216.944 23.8398C217.69 23.5015 220.857 22.2224 222.887 21.8884C225.622 21.4403 227.352 22.2265 227.839 23.5705C228.325 24.9134 227.634 25.9523 226.755 26.4338Z" fill="white"/>
<path d="M213.564 25.552L213.041 27.6382C212.771 28.7089 212.033 29.7921 210.648 29.8387L210 32.4217C210.8 32.3665 211.587 32.1926 212.336 31.9059C213.895 31.2571 215.089 30.1066 215.52 28.2735L216.596 23.9772C216.552 23.9991 214.414 25.0144 213.568 25.5335L213.564 25.552Z" fill="white"/>
<path d="M214.515 21.75L213.568 25.5336C214.414 25.0145 216.552 23.9991 216.596 23.9773L217.156 21.75H214.515Z" fill="#B1B1B1"/>
<g filter="url(#filter5_d_2935_28250)">
<ellipse cx="257" cy="27" rx="15" ry="15" fill="black"/>
<path d="M266 27C266 27.3073 265.985 27.6144 265.954 27.9202C265.923 28.2202 265.878 28.5184 265.817 28.8138C265.757 29.1068 265.683 29.3943 265.595 29.6763C265.508 29.9581 265.407 30.2338 265.293 30.5032C265.179 30.7724 265.053 31.0346 264.914 31.2899C264.775 31.545 264.625 31.7923 264.463 32.032C264.301 32.2714 264.128 32.5023 263.945 32.7248C263.761 32.9471 263.568 33.1601 263.364 33.364C263.16 33.5675 262.947 33.7612 262.725 33.9448C262.503 34.1283 262.272 34.301 262.032 34.4629C261.793 34.6247 261.545 34.7749 261.29 34.9137C261.035 35.0523 260.773 35.1786 260.503 35.2927C260.234 35.4066 259.958 35.5075 259.676 35.5954C259.395 35.683 259.107 35.757 258.814 35.8172C258.518 35.8776 258.22 35.9231 257.92 35.9535C257.308 36.0155 256.692 36.0155 256.08 35.9535C255.78 35.9231 255.482 35.8776 255.186 35.8172C254.893 35.7572 254.606 35.6833 254.324 35.5954C254.042 35.5077 253.766 35.4068 253.497 35.2927C253.228 35.1789 252.965 35.0525 252.71 34.9137C252.455 34.7752 252.208 34.6249 251.968 34.4629C251.729 34.3012 251.498 34.1285 251.275 33.9448C251.053 33.7614 250.84 33.5678 250.636 33.364C250.432 33.1604 250.239 32.9473 250.055 32.7248C249.872 32.5026 249.699 32.2716 249.537 32.032C249.375 31.7926 249.225 31.5452 249.086 31.2899C248.948 31.0349 248.821 30.7726 248.707 30.5032C248.593 30.234 248.493 29.9584 248.405 29.6763C248.317 29.3945 248.243 29.107 248.183 28.8138C248.122 28.5184 248.077 28.2202 248.046 27.9202C247.985 27.3083 247.985 26.6917 248.046 26.0798C248.077 25.7798 248.122 25.4816 248.183 25.1862C248.243 24.8932 248.317 24.6057 248.405 24.3237C248.492 24.0419 248.593 23.7662 248.707 23.4968C248.821 23.2276 248.947 22.9654 249.086 22.7101C249.225 22.455 249.375 22.2077 249.537 21.968C249.699 21.7286 249.871 21.4977 250.055 21.2752C250.239 21.0529 250.432 20.8399 250.636 20.636C250.84 20.4325 251.053 20.2388 251.275 20.0552C251.497 19.8717 251.728 19.699 251.968 19.5371C252.207 19.3753 252.455 19.2251 252.71 19.0863C252.965 18.9477 253.227 18.8214 253.497 18.7073C253.766 18.5934 254.042 18.4925 254.324 18.4046C254.605 18.317 254.893 18.243 255.186 18.1829C255.482 18.1224 255.78 18.0769 256.08 18.0465C256.692 17.9845 257.308 17.9845 257.92 18.0465C258.22 18.0769 258.518 18.1224 258.814 18.1829C259.107 18.2428 259.394 18.3167 259.676 18.4046C259.958 18.4923 260.234 18.5932 260.503 18.7073C260.772 18.8211 261.035 18.9475 261.29 19.0863C261.545 19.2248 261.792 19.3751 262.032 19.5371C262.271 19.6988 262.502 19.8715 262.725 20.0552C262.947 20.2386 263.16 20.4322 263.364 20.636C263.568 20.8396 263.761 21.0527 263.945 21.2752C264.128 21.4974 264.301 21.7284 264.463 21.968C264.625 22.2074 264.775 22.4548 264.914 22.7101C265.052 22.9651 265.179 23.2274 265.293 23.4968C265.407 23.766 265.507 24.0416 265.595 24.3237C265.683 24.6055 265.757 24.893 265.817 25.1862C265.878 25.4816 265.923 25.7798 265.954 26.0798C265.985 26.3856 266 26.6927 266 27Z" fill="#D9270B"/>
<path d="M258.299 34.7355C257.985 34.7355 257.674 34.7203 257.368 34.6899C257.062 34.6597 256.76 34.6151 256.464 34.556C256.167 34.4972 255.876 34.4247 255.591 34.3384C255.306 34.2524 255.027 34.1534 254.754 34.0414C254.482 33.9297 254.217 33.8057 253.958 33.6695C253.7 33.5335 253.45 33.386 253.207 33.2271C252.965 33.0684 252.732 32.8989 252.506 32.7187C252.282 32.5387 252.066 32.3486 251.86 32.1486C251.654 31.9488 251.458 31.7398 251.272 31.5214C251.086 31.3033 250.912 31.0767 250.748 30.8415C250.584 30.6066 250.432 30.3638 250.292 30.1133C250.151 29.863 250.024 29.6057 249.908 29.3412C249.435 28.2568 249.192 27.0864 249.193 25.9034C249.193 25.7456 249.197 25.5889 249.205 25.4331C249.214 25.2774 249.226 25.1228 249.243 24.9692C249.26 24.8157 249.28 24.6635 249.305 24.5124C249.33 24.3613 249.358 24.2116 249.391 24.0632C249.423 23.9148 249.459 23.7678 249.499 23.6222C249.539 23.4767 249.583 23.3327 249.63 23.1901C249.678 23.0477 249.729 22.9068 249.783 22.7676C249.838 22.6284 249.896 22.4909 249.957 22.3551C250.019 22.2193 250.084 22.0854 250.152 21.9533C250.22 21.8213 250.292 21.6911 250.366 21.5629C250.441 21.4347 250.519 21.3086 250.6 21.1844C250.681 21.0603 250.765 20.9384 250.853 20.8185C250.94 20.6987 251.03 20.5811 251.123 20.4658C251.216 20.3505 251.312 20.2375 251.411 20.1268C251.509 20.0162 251.611 19.9081 251.715 19.8023C251.819 19.6966 251.926 19.5934 252.035 19.4928C251.883 19.5935 251.735 19.6986 251.589 19.8082C251.444 19.9177 251.302 20.0314 251.164 20.1494C251.026 20.2673 250.891 20.3892 250.76 20.5152C250.629 20.6412 250.502 20.771 250.379 20.9046C250.256 21.0382 250.137 21.1755 250.022 21.3164C249.907 21.4573 249.796 21.6017 249.69 21.7495C249.584 21.8973 249.482 22.0483 249.384 22.2027C249.287 22.357 249.194 22.5144 249.106 22.6749C249.018 22.8353 248.934 22.9986 248.856 23.1649C248.778 23.3311 248.704 23.5 248.636 23.6717C248.567 23.8432 248.504 24.0174 248.446 24.194C248.388 24.3706 248.336 24.5496 248.289 24.7308C248.241 24.9121 248.2 25.0955 248.164 25.281C248.128 25.4665 248.098 25.6539 248.074 25.8433C248.049 26.0327 248.031 26.2238 248.019 26.4167C248.006 26.6096 248 26.804 248 27C248 27.3074 248.015 27.6145 248.046 27.9202C248.077 28.2202 248.122 28.5185 248.183 28.8138C248.243 29.1068 248.317 29.3943 248.405 29.6764C248.492 29.9582 248.593 30.2338 248.707 30.5032C248.821 30.7724 248.947 31.0347 249.086 31.29C249.225 31.545 249.375 31.7924 249.537 32.032C249.699 32.2714 249.872 32.5024 250.055 32.7249C250.239 32.9471 250.432 33.1602 250.636 33.364C250.84 33.5676 251.053 33.7612 251.275 33.9449C251.497 34.1283 251.728 34.301 251.968 34.463C252.207 34.6247 252.455 34.775 252.71 34.9138C252.965 35.0523 253.227 35.1787 253.497 35.2928C253.766 35.4066 254.042 35.5075 254.324 35.5954C254.605 35.6831 254.893 35.757 255.186 35.8172C255.482 35.8776 255.78 35.9231 256.08 35.9536C256.386 35.9846 256.693 36.0001 257 36C257.166 36 257.331 35.9956 257.494 35.9867C257.658 35.9778 257.82 35.9646 257.982 35.9471C258.143 35.9296 258.303 35.9079 258.461 35.882C258.62 35.8561 258.777 35.8261 258.933 35.792C259.088 35.7579 259.242 35.7199 259.395 35.6778C259.547 35.6358 259.698 35.59 259.847 35.5402C259.996 35.4905 260.144 35.437 260.289 35.3798C260.435 35.3226 260.579 35.2618 260.72 35.1973C260.862 35.1328 261.002 35.0649 261.14 34.9934C261.277 34.9219 261.413 34.847 261.546 34.7687C261.68 34.6905 261.811 34.6089 261.94 34.524C262.069 34.4392 262.195 34.3512 262.32 34.26C262.444 34.1689 262.565 34.0746 262.685 33.9773C262.804 33.8801 262.921 33.7799 263.035 33.6767C263.149 33.5736 263.26 33.4676 263.369 33.3588C263.477 33.25 263.583 33.1385 263.686 33.0243C263.592 33.0915 263.496 33.157 263.399 33.2207C263.302 33.2845 263.204 33.3464 263.104 33.4066C263.004 33.4667 262.904 33.5251 262.801 33.5815C262.699 33.638 262.596 33.6926 262.491 33.7454C262.387 33.7981 262.281 33.8488 262.174 33.8977C262.067 33.9466 261.959 33.9934 261.85 34.0383C261.741 34.0832 261.631 34.1261 261.519 34.1669C261.408 34.2077 261.296 34.2465 261.183 34.2832C261.069 34.3198 260.955 34.3544 260.84 34.3868C260.725 34.4192 260.609 34.4495 260.492 34.4776C260.374 34.5057 260.257 34.5315 260.138 34.5552C260.019 34.5788 259.899 34.6002 259.779 34.6193C259.659 34.6384 259.537 34.6552 259.415 34.6697C259.293 34.6842 259.171 34.6963 259.047 34.706C258.924 34.7158 258.8 34.7231 258.675 34.7281C258.55 34.733 258.425 34.7354 258.299 34.7355Z" fill="#C81D1A"/>
<path d="M264.335 22.5737C264.335 22.5489 264.335 22.5242 264.334 22.4995C264.334 22.4748 264.333 22.4502 264.332 22.4257C264.33 22.4012 264.329 22.3768 264.327 22.3525C264.325 22.3281 264.323 22.3039 264.321 22.2797C264.318 22.2555 264.316 22.2314 264.313 22.2074C264.31 22.1834 264.306 22.1595 264.303 22.1357C264.299 22.1119 264.295 22.0882 264.291 22.0646C264.287 22.041 264.283 22.0174 264.278 21.994C264.273 21.9706 264.268 21.9473 264.263 21.9241C264.258 21.9008 264.252 21.8777 264.246 21.8547C264.24 21.8317 264.234 21.8088 264.228 21.7861C264.222 21.7633 264.215 21.7406 264.208 21.718C264.201 21.6955 264.194 21.6731 264.187 21.6507C264.179 21.6284 264.171 21.6062 264.164 21.5841C264.156 21.562 264.147 21.5401 264.139 21.5183C264.13 21.4964 264.122 21.4747 264.113 21.4531C264.084 21.416 264.054 21.3791 264.025 21.3424C263.995 21.3057 263.965 21.2693 263.935 21.2331C263.905 21.1969 263.874 21.161 263.844 21.1253C263.813 21.0895 263.782 21.0541 263.751 21.0189C263.719 20.9836 263.688 20.9487 263.656 20.9139C263.624 20.8792 263.592 20.8447 263.56 20.8105C263.528 20.7763 263.495 20.7423 263.462 20.7086C263.429 20.6749 263.396 20.6414 263.363 20.6082C263.329 20.575 263.296 20.5421 263.262 20.5094C263.228 20.4767 263.194 20.4443 263.159 20.4121C263.125 20.38 263.09 20.3481 263.055 20.3164C263.02 20.2848 262.985 20.2535 262.95 20.2224C262.914 20.1913 262.879 20.1605 262.843 20.13C262.807 20.0994 262.771 20.0692 262.735 20.0392C262.698 20.0092 262.662 19.9795 262.625 19.95C262.588 19.9206 262.551 19.8915 262.514 19.8626C262.492 19.8539 262.471 19.8454 262.449 19.8372C262.428 19.829 262.406 19.821 262.384 19.8133C262.362 19.8055 262.34 19.7981 262.318 19.7908C262.296 19.7836 262.274 19.7766 262.252 19.7699C262.229 19.7632 262.207 19.7567 262.185 19.7505C262.162 19.7443 262.139 19.7384 262.117 19.7327C262.094 19.7271 262.071 19.7216 262.048 19.7165C262.025 19.7114 262.002 19.7065 261.979 19.7019C261.956 19.6973 261.933 19.693 261.91 19.6889C261.886 19.6849 261.863 19.6811 261.839 19.6776C261.816 19.6741 261.792 19.6709 261.769 19.668C261.745 19.665 261.721 19.6624 261.697 19.66C261.674 19.6577 261.65 19.6556 261.626 19.6538C261.602 19.652 261.578 19.6505 261.553 19.6494C261.529 19.6482 261.505 19.6473 261.481 19.6467C261.456 19.6461 261.432 19.6458 261.407 19.6458C261.307 19.6457 261.208 19.6508 261.108 19.6609C261.01 19.6708 260.913 19.6856 260.817 19.7052C260.722 19.7247 260.629 19.7488 260.537 19.7774C260.445 19.8059 260.355 19.8387 260.268 19.8758C260.18 19.9129 260.095 19.954 260.012 19.9991C259.929 20.0442 259.848 20.0931 259.77 20.1458C259.693 20.1984 259.617 20.2546 259.545 20.3144C259.473 20.374 259.403 20.437 259.337 20.5033C259.271 20.5696 259.208 20.6389 259.148 20.7113C259.088 20.7836 259.032 20.8587 258.98 20.9367C258.927 21.0145 258.878 21.095 258.833 21.1781C258.788 21.261 258.747 21.3464 258.71 21.434C258.673 21.5216 258.64 21.6113 258.611 21.703C258.583 21.7947 258.559 21.8882 258.539 21.9836C258.519 22.0797 258.505 22.1768 258.495 22.2743C258.474 22.4734 258.474 22.674 258.495 22.8731C258.505 22.9707 258.519 23.0677 258.539 23.1638C258.558 23.2591 258.583 23.3526 258.611 23.4444C258.64 23.5361 258.672 23.6258 258.71 23.7134C258.747 23.801 258.788 23.8863 258.833 23.9694C258.878 24.0523 258.927 24.1328 258.98 24.2108C259.032 24.2887 259.088 24.3638 259.148 24.4362C259.208 24.5085 259.271 24.5778 259.337 24.6441C259.403 24.7103 259.473 24.7733 259.545 24.8331C259.617 24.8927 259.692 24.9489 259.77 25.0016C259.848 25.0542 259.929 25.1031 260.012 25.1483C260.095 25.1934 260.18 25.2345 260.268 25.2716C260.355 25.3086 260.445 25.3414 260.537 25.37C260.628 25.3986 260.722 25.4226 260.817 25.4422C260.913 25.4618 261.01 25.4767 261.108 25.4866C261.307 25.5067 261.508 25.5067 261.707 25.4866C261.804 25.4767 261.901 25.4618 261.998 25.4422C262.093 25.4227 262.186 25.3986 262.278 25.37C262.37 25.3415 262.459 25.3087 262.547 25.2716C262.635 25.2345 262.72 25.1934 262.803 25.1483C262.886 25.1032 262.967 25.0543 263.044 25.0016C263.122 24.949 263.198 24.8928 263.27 24.8331C263.342 24.7734 263.412 24.7104 263.478 24.6441C263.544 24.5779 263.607 24.5086 263.667 24.4362C263.726 24.3639 263.783 24.2887 263.835 24.2108C263.888 24.1329 263.937 24.0524 263.982 23.9694C264.027 23.8864 264.068 23.8011 264.105 23.7134C264.142 23.6258 264.175 23.5362 264.204 23.4444C264.232 23.3527 264.256 23.2592 264.276 23.1638C264.296 23.0677 264.31 22.9707 264.32 22.8731C264.33 22.7736 264.335 22.6737 264.335 22.5737Z" fill="white"/>
<path d="M263.673 21.5812C263.673 21.6243 263.671 21.6673 263.666 21.7102C263.662 21.7522 263.656 21.794 263.647 21.8354C263.639 21.8764 263.629 21.9167 263.616 21.9562C263.604 21.9957 263.59 22.0343 263.574 22.0721C263.558 22.1098 263.54 22.1465 263.521 22.1823C263.501 22.2181 263.48 22.2527 263.458 22.2863C263.435 22.3198 263.411 22.3522 263.385 22.3834C263.359 22.4145 263.332 22.4444 263.304 22.4729C263.275 22.5014 263.245 22.5286 263.214 22.5543C263.183 22.58 263.151 22.6042 263.117 22.6269C263.083 22.6496 263.049 22.6706 263.013 22.6901C262.977 22.7095 262.941 22.7272 262.903 22.7432C262.865 22.7591 262.826 22.7733 262.787 22.7856C262.747 22.7979 262.707 22.8082 262.666 22.8167C262.625 22.8251 262.583 22.8315 262.541 22.8358C262.455 22.8444 262.369 22.8444 262.283 22.8358C262.241 22.8315 262.199 22.8251 262.158 22.8167C262.117 22.8083 262.076 22.7979 262.037 22.7856C261.997 22.7733 261.959 22.7592 261.921 22.7432C261.883 22.7272 261.847 22.7095 261.811 22.6901C261.775 22.6707 261.74 22.6496 261.707 22.6269C261.673 22.6042 261.641 22.58 261.61 22.5543C261.579 22.5286 261.549 22.5015 261.52 22.4729C261.492 22.4444 261.465 22.4145 261.439 22.3834C261.413 22.3522 261.389 22.3199 261.366 22.2863C261.344 22.2527 261.323 22.2181 261.303 22.1823C261.284 22.1466 261.266 22.1098 261.25 22.0721C261.234 22.0344 261.22 21.9957 261.208 21.9562C261.195 21.9167 261.185 21.8765 261.177 21.8354C261.168 21.794 261.162 21.7522 261.157 21.7102C261.149 21.6244 261.149 21.538 261.157 21.4523C261.162 21.4103 261.168 21.3685 261.177 21.3271C261.185 21.286 261.195 21.2458 261.208 21.2062C261.22 21.1668 261.234 21.1281 261.25 21.0904C261.266 21.0527 261.284 21.0159 261.303 20.9801C261.322 20.9444 261.344 20.9098 261.366 20.8762C261.389 20.8426 261.413 20.8103 261.439 20.7791C261.465 20.748 261.492 20.7181 261.52 20.6895C261.549 20.661 261.579 20.6339 261.61 20.6082C261.641 20.5825 261.673 20.5583 261.707 20.5356C261.74 20.5129 261.775 20.4918 261.811 20.4724C261.847 20.453 261.883 20.4353 261.921 20.4193C261.959 20.4033 261.997 20.3892 262.037 20.3769C262.076 20.3646 262.117 20.3542 262.158 20.3458C262.199 20.3373 262.241 20.331 262.283 20.3267C262.369 20.318 262.455 20.318 262.541 20.3267C262.583 20.331 262.625 20.3373 262.666 20.3458C262.707 20.3542 262.747 20.3646 262.787 20.3769C262.826 20.3892 262.865 20.4033 262.903 20.4193C262.94 20.4352 262.977 20.4529 263.013 20.4724C263.049 20.4918 263.083 20.5129 263.117 20.5356C263.151 20.5582 263.183 20.5824 263.214 20.6082C263.245 20.6339 263.275 20.661 263.304 20.6895C263.332 20.7181 263.359 20.7479 263.385 20.7791C263.411 20.8102 263.435 20.8426 263.458 20.8762C263.48 20.9097 263.501 20.9444 263.521 20.9801C263.54 21.0159 263.558 21.0526 263.574 21.0904C263.59 21.1281 263.604 21.1667 263.616 21.2062C263.629 21.2457 263.639 21.286 263.647 21.3271C263.656 21.3685 263.662 21.4103 263.666 21.4523C263.671 21.4951 263.673 21.5382 263.673 21.5812Z" fill="#65140C"/>
<path d="M263.252 21.5715C263.252 21.6002 263.25 21.6288 263.248 21.6574C263.245 21.6854 263.24 21.7132 263.235 21.7408C263.229 21.7681 263.222 21.7949 263.214 21.8212C263.206 21.8475 263.197 21.8733 263.186 21.8984C263.175 21.9235 263.163 21.948 263.151 21.9718C263.138 21.9956 263.124 22.0187 263.108 22.0411C263.093 22.0634 263.077 22.0849 263.06 22.1057C263.043 22.1264 263.025 22.1463 263.006 22.1653C262.987 22.1843 262.967 22.2024 262.946 22.2195C262.926 22.2367 262.904 22.2528 262.882 22.2679C262.859 22.283 262.836 22.297 262.812 22.3099C262.789 22.3229 262.764 22.3347 262.739 22.3453C262.714 22.3559 262.688 22.3654 262.662 22.3736C262.636 22.3817 262.609 22.3886 262.581 22.3943C262.554 22.3999 262.526 22.4041 262.498 22.407C262.441 22.4128 262.383 22.4128 262.326 22.407C262.298 22.4041 262.27 22.3999 262.243 22.3943C262.215 22.3887 262.189 22.3818 262.162 22.3736C262.136 22.3654 262.11 22.356 262.085 22.3453C262.06 22.3347 262.036 22.3229 262.012 22.3099C261.988 22.297 261.965 22.283 261.943 22.2679C261.92 22.2528 261.899 22.2367 261.878 22.2195C261.857 22.2024 261.837 22.1844 261.818 22.1653C261.799 22.1463 261.781 22.1265 261.764 22.1057C261.747 22.085 261.731 22.0634 261.716 22.0411C261.701 22.0187 261.687 21.9956 261.674 21.9718C261.661 21.948 261.649 21.9235 261.638 21.8984C261.628 21.8733 261.618 21.8476 261.61 21.8212C261.602 21.7949 261.595 21.7681 261.589 21.7408C261.584 21.7132 261.579 21.6854 261.577 21.6574C261.571 21.6003 261.571 21.5427 261.577 21.4856C261.579 21.4576 261.584 21.4298 261.589 21.4023C261.595 21.3749 261.602 21.3481 261.61 21.3218C261.618 21.2955 261.628 21.2698 261.638 21.2446C261.649 21.2195 261.661 21.195 261.674 21.1712C261.687 21.1474 261.701 21.1243 261.716 21.102C261.731 21.0796 261.747 21.0581 261.764 21.0373C261.781 21.0166 261.799 20.9967 261.818 20.9777C261.837 20.9587 261.857 20.9406 261.878 20.9235C261.899 20.9063 261.92 20.8902 261.943 20.8751C261.965 20.86 261.988 20.846 262.012 20.8331C262.036 20.8201 262.06 20.8083 262.085 20.7977C262.11 20.7871 262.136 20.7776 262.162 20.7694C262.189 20.7613 262.215 20.7544 262.243 20.7488C262.27 20.7431 262.298 20.7389 262.326 20.736C262.383 20.7302 262.441 20.7302 262.498 20.736C262.526 20.7389 262.554 20.7431 262.581 20.7488C262.609 20.7543 262.635 20.7612 262.662 20.7694C262.688 20.7776 262.714 20.787 262.739 20.7977C262.764 20.8083 262.789 20.8201 262.812 20.8331C262.836 20.846 262.859 20.86 262.882 20.8751C262.904 20.8902 262.926 20.9063 262.946 20.9235C262.967 20.9406 262.987 20.9586 263.006 20.9777C263.025 20.9967 263.043 21.0165 263.06 21.0373C263.077 21.058 263.093 21.0796 263.108 21.102C263.124 21.1243 263.138 21.1474 263.151 21.1712C263.163 21.195 263.175 21.2195 263.186 21.2446C263.197 21.2697 263.206 21.2954 263.214 21.3218C263.222 21.3481 263.229 21.3749 263.235 21.4023C263.24 21.4298 263.245 21.4576 263.248 21.4856C263.25 21.5142 263.252 21.5428 263.252 21.5715Z" fill="black"/>
<path d="M263.488 20.9209C263.488 20.9349 263.487 20.9489 263.486 20.9627C263.484 20.9764 263.482 20.9899 263.479 21.0033C263.477 21.0167 263.473 21.0297 263.469 21.0425C263.465 21.0553 263.461 21.0679 263.456 21.0801C263.45 21.0923 263.445 21.1042 263.438 21.1158C263.432 21.1274 263.425 21.1387 263.418 21.1495C263.41 21.1604 263.403 21.1709 263.394 21.181C263.386 21.1911 263.377 21.2008 263.368 21.2101C263.359 21.2193 263.349 21.2281 263.339 21.2364C263.329 21.2448 263.318 21.2526 263.307 21.26C263.297 21.2673 263.285 21.2742 263.274 21.2805C263.262 21.2868 263.25 21.2925 263.238 21.2977C263.226 21.3029 263.213 21.3074 263.2 21.3114C263.188 21.3154 263.174 21.3188 263.161 21.3215C263.148 21.3243 263.134 21.3263 263.121 21.3277C263.093 21.3305 263.065 21.3305 263.037 21.3277C263.023 21.3263 263.01 21.3243 262.996 21.3215C262.983 21.3188 262.97 21.3154 262.957 21.3114C262.944 21.3074 262.932 21.3029 262.92 21.2977C262.907 21.2925 262.895 21.2868 262.884 21.2805C262.872 21.2742 262.861 21.2673 262.85 21.26C262.839 21.2526 262.829 21.2448 262.819 21.2364C262.809 21.2281 262.799 21.2193 262.79 21.2101C262.78 21.2008 262.772 21.1911 262.763 21.181C262.755 21.1709 262.747 21.1604 262.74 21.1495C262.732 21.1387 262.726 21.1274 262.719 21.1158C262.713 21.1042 262.707 21.0923 262.702 21.0801C262.697 21.0679 262.692 21.0553 262.688 21.0425C262.684 21.0297 262.681 21.0167 262.678 21.0033C262.675 20.9899 262.673 20.9764 262.672 20.9627C262.669 20.935 262.669 20.9069 262.672 20.8791C262.673 20.8655 262.675 20.852 262.678 20.8385C262.681 20.8252 262.684 20.8122 262.688 20.7994C262.692 20.7865 262.697 20.774 262.702 20.7618C262.707 20.7496 262.713 20.7377 262.719 20.7261C262.726 20.7145 262.732 20.7032 262.74 20.6924C262.747 20.6815 262.755 20.671 262.763 20.6609C262.772 20.6508 262.78 20.6411 262.79 20.6318C262.799 20.6226 262.809 20.6138 262.819 20.6055C262.829 20.5971 262.839 20.5893 262.85 20.5819C262.861 20.5746 262.872 20.5677 262.884 20.5614C262.895 20.5551 262.907 20.5494 262.92 20.5442C262.932 20.539 262.944 20.5345 262.957 20.5305C262.97 20.5265 262.983 20.5231 262.996 20.5204C263.01 20.5176 263.023 20.5156 263.037 20.5142C263.065 20.5114 263.093 20.5114 263.121 20.5142C263.134 20.5156 263.148 20.5176 263.161 20.5204C263.174 20.5231 263.188 20.5265 263.2 20.5305C263.213 20.5345 263.226 20.539 263.238 20.5442C263.25 20.5494 263.262 20.5551 263.274 20.5614C263.285 20.5677 263.296 20.5746 263.307 20.5819C263.318 20.5893 263.329 20.5971 263.339 20.6055C263.349 20.6138 263.359 20.6226 263.368 20.6318C263.377 20.6411 263.386 20.6508 263.394 20.6609C263.403 20.671 263.41 20.6815 263.418 20.6924C263.425 20.7032 263.432 20.7145 263.438 20.7261C263.445 20.7377 263.45 20.7496 263.456 20.7618C263.461 20.774 263.465 20.7866 263.469 20.7994C263.473 20.8122 263.477 20.8252 263.479 20.8385C263.482 20.852 263.484 20.8655 263.486 20.8791C263.487 20.893 263.488 20.907 263.488 20.9209Z" fill="white"/>
</g>
<defs>
<filter id="filter0_d_2935_28250" x="0" y="2" width="58" height="58" filterUnits="userSpaceOnUse" color-interpolation-filters="sRGB">
<feFlood flood-opacity="0" result="BackgroundImageFix"/>
<feColorMatrix in="SourceAlpha" type="matrix" values="0 0 0 0 0 0 0 0 0 0 0 0 0 0 0 0 0 0 127 0" result="hardAlpha"/>
<feOffset dy="4"/>
<feGaussianBlur stdDeviation="7"/>
<feComposite in2="hardAlpha" operator="out"/>
<feColorMatrix type="matrix" values="0 0 0 0 0.145098 0 0 0 0 0.12549 0 0 0 0 0.121569 0 0 0 0.25 0"/>
<feBlend mode="normal" in2="BackgroundImageFix" result="effect1_dropShadow_2935_28250"/>
<feBlend mode="normal" in="SourceGraphic" in2="effect1_dropShadow_2935_28250" result="shape"/>
</filter>
<filter id="filter1_d_2935_28250" x="38" y="2" width="58" height="58" filterUnits="userSpaceOnUse" color-interpolation-filters="sRGB">
<feFlood flood-opacity="0" result="BackgroundImageFix"/>
<feColorMatrix in="SourceAlpha" type="matrix" values="0 0 0 0 0 0 0 0 0 0 0 0 0 0 0 0 0 0 127 0" result="hardAlpha"/>
<feOffset dy="4"/>
<feGaussianBlur stdDeviation="7"/>
<feComposite in2="hardAlpha" operator="out"/>
<feColorMatrix type="matrix" values="0 0 0 0 0.145098 0 0 0 0 0.12549 0 0 0 0 0.121569 0 0 0 0.25 0"/>
<feBlend mode="normal" in2="BackgroundImageFix" result="effect1_dropShadow_2935_28250"/>
<feBlend mode="normal" in="SourceGraphic" in2="effect1_dropShadow_2935_28250" result="shape"/>
</filter>
<filter id="filter2_d_2935_28250" x="76" y="2" width="58" height="58" filterUnits="userSpaceOnUse" color-interpolation-filters="sRGB">
<feFlood flood-opacity="0" result="BackgroundImageFix"/>
<feColorMatrix in="SourceAlpha" type="matrix" values="0 0 0 0 0 0 0 0 0 0 0 0 0 0 0 0 0 0 127 0" result="hardAlpha"/>
<feOffset dy="4"/>
<feGaussianBlur stdDeviation="7"/>
<feComposite in2="hardAlpha" operator="out"/>
<feColorMatrix type="matrix" values="0 0 0 0 0.145098 0 0 0 0 0.12549 0 0 0 0 0.121569 0 0 0 0.25 0"/>
<feBlend mode="normal" in2="BackgroundImageFix" result="effect1_dropShadow_2935_28250"/>
<feBlend mode="normal" in="SourceGraphic" in2="effect1_dropShadow_2935_28250" result="shape"/>
</filter>
<filter id="filter3_d_2935_28250" x="112" y="0" width="62" height="62" filterUnits="userSpaceOnUse" color-interpolation-filters="sRGB">
<feFlood flood-opacity="0" result="BackgroundImageFix"/>
<feColorMatrix in="SourceAlpha" type="matrix" values="0 0 0 0 0 0 0 0 0 0 0 0 0 0 0 0 0 0 127 0" result="hardAlpha"/>
<feOffset dy="4"/>
<feGaussianBlur stdDeviation="8"/>
<feColorMatrix type="matrix" values="0 0 0 0 0.0666667 0 0 0 0 0.0705882 0 0 0 0 0.211765 0 0 0 0.16 0"/>
<feBlend mode="normal" in2="BackgroundImageFix" result="effect1_dropShadow_2935_28250"/>
<feBlend mode="normal" in="SourceGraphic" in2="effect1_dropShadow_2935_28250" result="shape"/>
</filter>
<filter id="filter4_d_2935_28250" x="150" y="0" width="62" height="62" filterUnits="userSpaceOnUse" color-interpolation-filters="sRGB">
<feFlood flood-opacity="0" result="BackgroundImageFix"/>
<feColorMatrix in="SourceAlpha" type="matrix" values="0 0 0 0 0 0 0 0 0 0 0 0 0 0 0 0 0 0 127 0" result="hardAlpha"/>
<feOffset dy="4"/>
<feGaussianBlur stdDeviation="8"/>
<feColorMatrix type="matrix" values="0 0 0 0 0.0666667 0 0 0 0 0.0705882 0 0 0 0 0.211765 0 0 0 0.16 0"/>
<feBlend mode="normal" in2="BackgroundImageFix" result="effect1_dropShadow_2935_28250"/>
<feBlend mode="normal" in="SourceGraphic" in2="effect1_dropShadow_2935_28250" result="shape"/>
</filter>
<filter id="filter5_d_2935_28250" x="228" y="2" width="58" height="58" filterUnits="userSpaceOnUse" color-interpolation-filters="sRGB">
<feFlood flood-opacity="0" result="BackgroundImageFix"/>
<feColorMatrix in="SourceAlpha" type="matrix" values="0 0 0 0 0 0 0 0 0 0 0 0 0 0 0 0 0 0 127 0" result="hardAlpha"/>
<feOffset dy="4"/>
<feGaussianBlur stdDeviation="7"/>
<feComposite in2="hardAlpha" operator="out"/>
<feColorMatrix type="matrix" values="0 0 0 0 0.145098 0 0 0 0 0.12549 0 0 0 0 0.121569 0 0 0 0.25 0"/>
<feBlend mode="normal" in2="BackgroundImageFix" result="effect1_dropShadow_2935_28250"/>
<feBlend mode="normal" in="SourceGraphic" in2="effect1_dropShadow_2935_28250" result="shape"/>
</filter>
<clipPath id="clip0_2935_28250">
<rect width="30" height="30" fill="white" transform="translate(128 12)"/>
</clipPath>
<clipPath id="clip1_2935_28250">
<rect width="30" height="30" fill="white" transform="translate(166 12)"/>
</clipPath>
</defs>
</svg>
